<svg width="21" height="25" viewBox="0 0 21 25" fill="none" xmlns="http://www.w3.org/2000/svg">
<path d="M1.00072 16.1219V15.9168C1.03102 15.31 1.22319 14.7223 1.55729 14.2148C2.11494 13.606 2.49726 12.8575 2.66364 12.0489C2.66364 11.4251 2.66364 10.7919 2.71725 10.1681C2.99639 7.16395 5.93671 5.08743 8.83788 5.08743H8.91022C11.8122 5.08743 14.7517 7.16395 15.0377 10.1681C15.0913 10.7919 15.0377 11.4251 15.0819 12.0489C15.2508 12.8592 15.6327 13.6098 16.1883 14.2233C16.5259 14.726 16.7187 15.3119 16.7457 15.9168V16.1126C16.7655 16.9286 16.4875 17.7239 15.9636 18.3499C15.2683 19.0851 14.3288 19.5414 13.3211 19.6333C10.3614 19.9542 7.37565 19.9542 4.41591 19.6333C3.40969 19.5371 2.47184 19.0815 1.77431 18.3499C1.25846 17.7236 0.984024 16.9332 1.00072 16.1219V16.1219Z" stroke="#2E3E5C" stroke-width="1.27655" stroke-miterlimit="10" stroke-linecap="round" stroke-linejoin="round"/>
<path d="M6.60995 22.3285C7.07416 22.9164 7.75278 23.2959 8.49669 23.3838C9.24142 23.4726 9.99103 23.263 10.5817 22.8008C10.7631 22.6647 10.9264 22.5059 11.0677 22.3285" stroke="#2E3E5C" stroke-width="1.27655" stroke-miterlimit="10" stroke-linecap="round" stroke-linejoin="round"/>
<circle cx="15.0428" cy="5.95717" r="5.95723" fill="white"/>
<path d="M14.9729 10.6642C14.073 10.6636 13.1936 10.3961 12.4456 9.89578C11.6977 9.39541 11.1149 8.68456 10.7708 7.85305C10.4268 7.02155 10.3369 6.10671 10.5126 5.22416C10.6883 4.3416 11.1218 3.53095 11.7581 2.89464C12.3944 2.25833 13.205 1.82493 14.0876 1.64921C14.9701 1.47348 15.885 1.56333 16.7165 1.90738C17.548 2.25144 18.2588 2.83427 18.7592 3.58221C19.2596 4.33015 19.527 5.20963 19.5277 6.10951C19.5272 7.31736 19.0472 8.47561 18.1931 9.32969C17.339 10.1838 16.1808 10.6638 14.9729 10.6642ZM14.9729 2.92749C14.3429 2.92749 13.727 3.11431 13.2032 3.46433C12.6794 3.81435 12.2711 4.31184 12.03 4.8939C11.7889 5.47596 11.7258 6.11644 11.8487 6.73435C11.9716 7.35226 12.275 7.91985 12.7205 8.36534C13.166 8.81083 13.7336 9.11421 14.3515 9.23712C14.9694 9.36003 15.6099 9.29695 16.1919 9.05585C16.774 8.81475 17.2715 8.40647 17.6215 7.88263C17.9715 7.35879 18.1583 6.74293 18.1583 6.11291C18.1589 5.69408 18.0769 5.27923 17.9171 4.89208C17.7574 4.50493 17.5229 4.15304 17.2271 3.85652C16.9313 3.56001 16.5799 3.32467 16.1932 3.16395C15.8064 3.00323 15.3917 2.92028 14.9729 2.91983V2.92749Z" fill="#5F93FB" stroke="#5F93FB" stroke-width="0.851033"/>
</svg>
