<svg width="28" height="26" viewBox="0 0 28 26" fill="none" xmlns="http://www.w3.org/2000/svg">
<path fill-rule="evenodd" clip-rule="evenodd" d="M25.0291 6.11129H27.1617V1.04245H25.0291C24.7025 1.04245 24.3906 1.10553 24.1039 1.2191V0H17.8925V1.59575H22.5082V16.8814C20.9605 17.0823 19.5911 17.8593 18.6229 18.9897H6.33645C6.01342 17.3113 4.53442 16.0392 2.7632 16.0392H2.19931V17.6349H2.76325C3.64852 17.6349 4.40384 18.2008 4.68719 18.9897H2.20735V20.098C0.936438 20.4484 0 21.614 0 22.9948C0 24.6519 1.34814 26 3.00522 26C4.38607 26 5.55161 25.0636 5.90209 23.7927H18.7366V22.9948C18.7366 20.7474 20.3678 18.8752 22.5082 18.4965V20.098C21.2372 20.4484 20.3008 21.614 20.3008 22.9948C20.3008 24.6519 21.649 26 23.3061 26C24.9631 26 26.3113 24.6519 26.3113 22.9948C26.3113 21.614 25.3749 20.4484 24.1039 20.098V5.93469C24.3906 6.0482 24.7025 6.11129 25.0291 6.11129ZM3.00522 24.4043C2.22804 24.4043 1.59575 23.772 1.59575 22.9948C1.59575 22.2177 2.22804 21.5854 3.00522 21.5854C3.7824 21.5854 4.41469 22.2177 4.41469 22.9948C4.41469 23.772 3.7824 24.4043 3.00522 24.4043ZM4.79942 20.5855C5.32799 20.9801 5.72214 21.5445 5.90209 22.1969H17.1922C17.2655 21.6324 17.4155 21.0917 17.6313 20.5855H4.79942ZM25.0291 2.6382H25.566V4.51559H25.0291C24.519 4.51559 24.1039 4.10054 24.1039 3.59038V3.56336C24.1039 3.0532 24.519 2.6382 25.0291 2.6382ZM23.3061 24.4043C24.0832 24.4043 24.7155 23.772 24.7155 22.9948C24.7155 22.2176 24.0832 21.5854 23.3061 21.5854C22.5289 21.5854 21.8966 22.2177 21.8966 22.9948C21.8966 23.772 22.5289 24.4043 23.3061 24.4043Z" fill="#757897"/>
</svg>
