<svg width="34" height="16" viewBox="0 0 34 16" fill="none" xmlns="http://www.w3.org/2000/svg">
<path fill-rule="evenodd" clip-rule="evenodd" d="M25.6714 5.30907L31.5599 6.2024C32.736 6.37487 33.6059 7.38665 33.5999 8.57533V10.9333C33.5985 12.2582 32.5248 13.3318 31.1999 13.3333H30.3057C29.9354 14.8963 28.5396 16 26.9333 16C25.327 16 23.9312 14.8963 23.5608 13.3333H11.1058C10.7354 14.8963 9.3396 16 7.73332 16C6.12704 16 4.73125 14.8963 4.36086 13.3333H2.93333C1.31404 13.3315 0.00180029 12.0193 0 10.4V7.73333C0.00146963 6.40846 1.07512 5.3348 2.4 5.33333H4.68212L8.06798 1.10094C8.62328 0.403319 9.46701 -0.00219214 10.3586 8.91415e-06H18.1686C18.8482 0.000774171 19.5066 0.236809 20.0319 0.668008L25.6714 5.30907ZM23.1832 5.33333L19.0156 1.90374C18.7768 1.70774 18.4776 1.60042 18.1686 1.60001H15.4666V5.33333H23.1832ZM9.31745 2.1C9.56994 1.78307 9.95343 1.59892 10.3586 1.60001H10.6666V5.33333H6.73112L9.31745 2.1ZM5.86666 12.5333C5.86666 13.5642 6.70239 14.4 7.73332 14.4C8.76376 14.3988 9.59881 13.5638 9.59998 12.5333C9.59998 11.5024 8.76425 10.6667 7.73332 10.6667C6.70239 10.6667 5.86666 11.5024 5.86666 12.5333ZM26.9333 14.4C25.9024 14.4 25.0666 13.5642 25.0666 12.5333C25.0666 11.5024 25.9024 10.6667 26.9333 10.6667C27.9642 10.6667 28.7999 11.5024 28.7999 12.5333C28.7988 13.5638 27.9637 14.3988 26.9333 14.4ZM31.1999 11.7333C31.6416 11.7328 31.9995 11.375 31.9999 10.9333V8.57533C31.9977 8.18064 31.7098 7.84571 31.3199 7.78426L25.7122 6.93333H14.6666C14.2248 6.93333 13.8666 6.57516 13.8666 6.13333V1.60001H12.2666V6.13333C12.2666 6.57516 11.9085 6.93333 11.4666 6.93333H2.4C1.95837 6.93381 1.60047 7.2917 1.6 7.73333V10.4C1.60084 11.136 2.1973 11.7325 2.93333 11.7333H4.36086C4.73125 10.1703 6.12704 9.06665 7.73332 9.06665C9.3396 9.06665 10.7354 10.1703 11.1058 11.7333H23.5608C23.9312 10.1703 25.327 9.06665 26.9333 9.06665C28.5396 9.06665 29.9354 10.1703 30.3057 11.7333H31.1999ZM7.73332 13.3333C8.17515 13.3333 8.53332 12.9752 8.53332 12.5333C8.53332 12.0915 8.17515 11.7333 7.73332 11.7333C7.29149 11.7333 6.93332 12.0915 6.93332 12.5333C6.93332 12.9752 7.29149 13.3333 7.73332 13.3333ZM26.9333 13.3333C27.3751 13.3333 27.7333 12.9752 27.7333 12.5333C27.7333 12.0915 27.3751 11.7333 26.9333 11.7333C26.4915 11.7333 26.1333 12.0915 26.1333 12.5333C26.1333 12.9752 26.4915 13.3333 26.9333 13.3333ZM14.6666 7.46667H15.7333C16.1751 7.46667 16.5333 7.82484 16.5333 8.26667C16.5333 8.7085 16.1751 9.06667 15.7333 9.06667H14.6666C14.2248 9.06667 13.8666 8.7085 13.8666 8.26667C13.8666 7.82484 14.2248 7.46667 14.6666 7.46667Z" fill="white"/>
</svg>
