<svg width="22" height="21" viewBox="0 0 22 21" fill="none" xmlns="http://www.w3.org/2000/svg">
<path fill-rule="evenodd" clip-rule="evenodd" d="M14.6373 3.51503L20.6285 0.121124C21.2396 -0.225196 22 0.212416 22 0.910446V15.4561C22 15.7823 21.8237 16.0836 21.5381 16.2454L15.1355 19.8739C14.9983 19.955 14.838 20.0016 14.6667 20.0016C14.6659 20.0016 14.665 20.0016 14.6642 20.0016C14.6514 20.0016 14.6387 20.0013 14.6259 20.0007C14.4871 19.9947 14.3564 19.9581 14.2403 19.8975L7.36175 16.487L1.37146 19.8818C0.790914 20.2108 0.0756627 19.8323 0.00558899 19.1952L0 19.0925V4.54686C0 4.22062 0.176262 3.9194 0.461873 3.75754L6.86456 0.129045C7.00172 0.0479382 7.16204 0.00134333 7.33333 0.00134333L7.3408 0.00137292C7.49195 0.00256828 7.63439 0.0400459 7.75969 0.105456L14.6373 3.51503ZM15.5833 17.5245L20.1667 14.927V2.47683L15.5833 5.07442V17.5245ZM13.75 5.10875V17.6208L8.25 14.8942V2.38178L13.75 5.10875ZM1.83333 5.07414L6.41667 2.47692V14.9285L1.83333 17.5252V5.07414Z" fill="#757897"/>
</svg>
