<svg width="29" height="20" viewBox="0 0 29 20" fill="none" xmlns="http://www.w3.org/2000/svg">
<path fill-rule="evenodd" clip-rule="evenodd" d="M22.6591 12.1263C23.2359 11.8331 23.8891 11.6667 24.5812 11.6667C26.9075 11.6667 28.8 13.5358 28.8 15.8333C28.8 18.1309 26.9075 20 24.5812 20C22.255 20 20.3625 18.1309 20.3625 15.8333C20.3625 14.8203 20.7308 13.8908 21.3416 13.1678L20.2645 11.8381C19.5761 12.5618 19.0712 13.4551 18.8411 14.4288C18.7308 14.8956 18.675 15.3683 18.675 15.8333C18.675 16.2936 18.2973 16.6667 17.8312 16.6667H9.8354C9.13887 18.6068 7.2624 20 5.0625 20C2.27109 20 0 17.7569 0 15C0 12.2431 2.27109 10 5.0625 10C7.85391 10 10.125 12.2431 10.125 15H11.8687C11.8687 11.753 9.39441 8.92166 6.11323 8.41385C6.0256 8.40028 5.95618 8.3889 5.898 8.37935L5.89775 8.37931L5.897 8.37919L5.89675 8.37915L5.89671 8.37914L5.89661 8.37912L5.89656 8.37911C5.80243 8.36367 5.73775 8.35306 5.6727 8.34584C5.52997 8.32999 5.38543 8.33047 4.92395 8.33199H4.92393H4.92391H4.92389C4.74352 8.33258 4.51475 8.33333 4.21875 8.33333C1.8925 8.33333 0 6.46419 0 4.16667C0 3.70638 0.37771 3.33333 0.84375 3.33333H7.65C7.80293 3.33333 7.953 3.37435 8.08418 3.45204L9.47725 4.27756C10.5603 2.66753 12.4053 1.66667 14.4 1.66667C16.1578 1.66667 17.8374 2.4401 18.9558 3.72591C19.3944 3.523 19.8697 3.39431 20.3625 3.35026V1.71246C20.1221 1.68229 19.8771 1.66667 19.6286 1.66667H18.675C18.209 1.66667 17.8312 1.29362 17.8312 0.833333C17.8312 0.373047 18.209 0 18.675 0H19.6286C23.7476 0 27.1125 3.31424 27.1125 7.40256C27.1125 9.00694 25.9203 10.0007 24.6661 10.0007L24.6417 10.0004C24.1706 9.99544 23.6898 10.0467 23.2154 10.1515C22.6375 10.2793 22.0869 10.5004 21.5813 10.7956L22.6591 12.1263ZM1.6875 15C1.6875 16.8381 3.20142 18.3333 5.0625 18.3333C6.30901 18.3333 7.39885 17.6508 7.98354 16.6556H5.90625C4.51055 16.6556 3.375 15.5451 3.375 14.1667C3.375 13.7064 3.75271 13.3333 4.21875 13.3333C4.68479 13.3333 5.0625 13.7064 5.0625 14.1667C5.0625 14.6261 5.44109 15 5.90625 15H8.4375C8.4375 13.1619 6.92358 11.6667 5.0625 11.6667C3.20142 11.6667 1.6875 13.1619 1.6875 15ZM14.4 3.33333C15.6267 3.33333 16.7985 3.85373 17.5983 4.72396C17.4685 4.86806 17.3476 5.0217 17.2373 5.18468L16.2189 6.65885C14.3561 6.59136 12.5367 6.06814 10.9263 5.1352C11.7055 4.02192 13.0014 3.33333 14.4 3.33333ZM5.81754 6.69208C5.89584 6.70069 5.97366 6.71353 6.08871 6.73252C6.16428 6.74499 6.25591 6.76012 6.37427 6.77843C8.48408 7.10482 10.408 8.20725 11.7411 9.87153C12.622 8.99826 13.7852 8.45812 15.0484 8.35243L15.122 8.24588C13.3025 8.03516 11.5422 7.4451 9.96196 6.50846L7.41621 5H1.83208C2.18035 5.97005 3.1188 6.67773 4.21875 6.67773C4.53427 6.67773 4.78021 6.67693 4.97569 6.67629C5.48806 6.67462 5.65382 6.67408 5.81754 6.69208ZM17.0336 15H13.5562C13.5562 13.7207 13.2517 12.4668 12.6795 11.3314C13.3668 10.4907 14.3945 10 15.5074 10C15.7863 10 16.0471 9.86393 16.2044 9.6365L18.6337 6.12088C18.6354 6.11827 18.6372 6.11589 18.6387 6.11328C19.1094 5.41623 19.8967 5 20.745 5H21.2062C21.6723 5 22.05 4.62695 22.05 4.16667V2.19184C23.9981 3.08181 25.425 5.01562 25.425 7.50499C25.425 7.93641 25.093 8.33746 24.6588 8.33377C24.0561 8.32791 23.4475 8.39214 22.8465 8.52496C21.491 8.82509 20.2397 9.50629 19.2278 10.4952C17.9989 11.6968 17.2283 13.2326 17.0336 15ZM22.05 15.8333C22.05 17.2118 23.1855 18.3333 24.5812 18.3333C25.977 18.3333 27.1125 17.2118 27.1125 15.8333C27.1125 14.4549 25.977 13.3333 24.5812 13.3333C24.2899 13.3333 24.0102 13.3828 23.7496 13.4727L25.2402 15.3129C25.5311 15.6721 25.4722 16.1966 25.1084 16.4842C24.7447 16.7715 24.2136 16.7135 23.9223 16.3539L22.4323 14.5143C22.1904 14.8976 22.05 15.3494 22.05 15.8333Z" fill="#757897"/>
</svg>
