<svg width="16" height="16" viewBox="0 0 16 16" fill="none" xmlns="http://www.w3.org/2000/svg">
<path d="M15.4142 6.58577C16.1952 7.36682 16.1952 8.63315 15.4142 9.4142C14.6331 10.1952 13.3668 10.1952 12.5858 9.4142C11.8047 8.63315 11.8047 7.36682 12.5858 6.58577C13.3668 5.80473 14.6331 5.80473 15.4142 6.58577Z" fill="#757897"/>
<path d="M9.41423 6.58577C10.1953 7.36682 10.1953 8.63315 9.41423 9.4142C8.63318 10.1952 7.36685 10.1952 6.5858 9.4142C5.80476 8.63315 5.80476 7.36682 6.5858 6.58577C7.36685 5.80473 8.63318 5.80473 9.41423 6.58577Z" fill="#757897"/>
<path d="M3.41423 6.58577C4.19527 7.36682 4.19527 8.63315 3.41423 9.4142C2.63318 10.1952 1.36685 10.1952 0.585807 9.4142C-0.195238 8.63315 -0.195238 7.36682 0.585807 6.58577C1.36685 5.80473 2.63318 5.80473 3.41423 6.58577Z" fill="#757897"/>
</svg>
