<svg width="20" height="20" viewBox="0 0 20 20" fill="none" xmlns="http://www.w3.org/2000/svg">
<path d="M0.25 6.83297C0.250596 7.47376 0.505385 8.08814 0.958455 8.54128C1.41153 8.99442 2.02586 9.2493 2.66665 9.25H6.83335C7.47414 9.2493 8.08847 8.99442 8.54154 8.54128C8.99461 8.08814 9.2494 7.47376 9.25 6.83297V2.66703C9.2494 2.02624 8.99461 1.41186 8.54154 0.958721C8.08847 0.50558 7.47414 0.250695 6.83335 0.25H2.66665C2.02586 0.250695 1.41153 0.50558 0.958455 0.958721C0.505385 1.41186 0.250596 2.02624 0.25 2.66703V6.83297ZM1.75 2.66703C1.75026 2.42396 1.8469 2.19092 2.01874 2.01901C2.19058 1.8471 2.42358 1.75036 2.66665 1.75H6.83335C7.07642 1.75036 7.30942 1.8471 7.48126 2.01901C7.6531 2.19092 7.74974 2.42396 7.75 2.66703V6.83297C7.74974 7.07604 7.6531 7.30908 7.48126 7.48099C7.30942 7.6529 7.07642 7.74964 6.83335 7.75H2.66665C2.42358 7.74964 2.19058 7.6529 2.01874 7.48099C1.8469 7.30908 1.75026 7.07604 1.75 6.83297V2.66703Z" fill="#757897"/>
<path d="M0.25 17.333C0.250596 17.9738 0.505385 18.5881 0.958455 19.0413C1.41153 19.4944 2.02586 19.7493 2.66665 19.75H6.83335C7.47414 19.7493 8.08847 19.4944 8.54154 19.0413C8.99461 18.5881 9.2494 17.9738 9.25 17.333V13.167C9.2494 12.5262 8.99461 11.9119 8.54154 11.4587C8.08847 11.0056 7.47414 10.7507 6.83335 10.75H2.66665C2.02586 10.7507 1.41153 11.0056 0.958455 11.4587C0.505385 11.9119 0.250596 12.5262 0.25 13.167V17.333ZM1.75 13.167C1.75026 12.924 1.8469 12.6909 2.01874 12.519C2.19058 12.3471 2.42358 12.2504 2.66665 12.25H6.83335C7.07642 12.2504 7.30942 12.3471 7.48126 12.519C7.6531 12.6909 7.74974 12.924 7.75 13.167V17.333C7.74974 17.576 7.6531 17.8091 7.48126 17.981C7.30942 18.1529 7.07642 18.2496 6.83335 18.25H2.66665C2.42358 18.2496 2.19058 18.1529 2.01874 17.981C1.8469 17.8091 1.75026 17.576 1.75 17.333V13.167Z" fill="#757897"/>
<path d="M15.25 0.25C14.36 0.25 13.49 0.51392 12.7499 1.00839C12.0099 1.50285 11.4331 2.20566 11.0925 3.02792C10.7519 3.85019 10.6628 4.75499 10.8365 5.62791C11.0101 6.50082 11.4387 7.30264 12.068 7.93198C12.6974 8.56132 13.4992 8.9899 14.3721 9.16353C15.245 9.33717 16.1498 9.24805 16.9721 8.90746C17.7943 8.56686 18.4971 7.99009 18.9916 7.25007C19.4861 6.51004 19.75 5.64002 19.75 4.75C19.7487 3.55693 19.2742 2.4131 18.4305 1.56947C17.5869 0.725837 16.4431 0.25131 15.25 0.25ZM15.25 7.75C14.6567 7.75 14.0766 7.57405 13.5833 7.24441C13.0899 6.91476 12.7054 6.44623 12.4784 5.89805C12.2513 5.34987 12.1919 4.74667 12.3076 4.16473C12.4234 3.58279 12.7091 3.04824 13.1287 2.62868C13.5482 2.20912 14.0828 1.9234 14.6647 1.80764C15.2467 1.69189 15.8499 1.7513 16.398 1.97836C16.9462 2.20542 17.4148 2.58994 17.7444 3.08329C18.0741 3.57664 18.25 4.15666 18.25 4.75C18.2492 5.54539 17.9328 6.30797 17.3704 6.8704C16.808 7.43283 16.0454 7.74917 15.25 7.75Z" fill="#757897"/>
<path d="M13.1667 10.75C12.5259 10.7507 11.9115 11.0056 11.4585 11.4587C11.0054 11.9119 10.7506 12.5262 10.75 13.167V17.333C10.7506 17.9738 11.0054 18.5881 11.4585 19.0413C11.9115 19.4944 12.5259 19.7493 13.1667 19.75H17.3333C17.9741 19.7493 18.5885 19.4944 19.0415 19.0413C19.4946 18.5881 19.7494 17.9738 19.75 17.333V13.167C19.7494 12.5262 19.4946 11.9119 19.0415 11.4587C18.5885 11.0056 17.9741 10.7507 17.3333 10.75H13.1667ZM18.25 13.167V17.333C18.2497 17.576 18.1531 17.8091 17.9813 17.981C17.8094 18.1529 17.5764 18.2496 17.3333 18.25H13.1667C12.9236 18.2496 12.6906 18.1529 12.5187 17.981C12.3469 17.8091 12.2503 17.576 12.25 17.333V13.167C12.2503 12.924 12.3469 12.6909 12.5187 12.519C12.6906 12.3471 12.9236 12.2504 13.1667 12.25H17.3333C17.5764 12.2504 17.8094 12.3471 17.9813 12.519C18.1531 12.6909 18.2497 12.924 18.25 13.167Z" fill="#757897"/>
</svg>
