<svg width="14" height="17" viewBox="0 0 14 17" fill="none" xmlns="http://www.w3.org/2000/svg">
<path fill-rule="evenodd" clip-rule="evenodd" d="M14 7.08333C14 3.17132 10.866 0 7 0C3.13401 0 0 3.17132 0 7.08333C0 9.47155 1.26168 11.8122 3.34183 14.034C4.0551 14.7959 4.81722 15.49 5.57958 16.1042C5.7132 16.2119 5.84217 16.3133 5.96574 16.4083L6.31945 16.6736L6.61171 16.881C6.84684 17.0397 7.15316 17.0397 7.38829 16.881L7.68055 16.6736L8.03426 16.4083C8.15783 16.3133 8.2868 16.2119 8.42042 16.1042C9.18278 15.49 9.9449 14.7959 10.6582 14.034C12.7383 11.8122 14 9.47155 14 7.08333ZM1.4 7.08333C1.4 3.95372 3.90721 1.41667 7 1.41667C10.0928 1.41667 12.6 3.95372 12.6 7.08333C12.6 9.03366 11.4992 11.0758 9.64183 13.0597C8.97697 13.7699 8.26254 14.4205 7.54833 14.996L7.3647 15.1423L7.24638 15.2347L6.9993 15.4218L6.81148 15.2793C6.69664 15.1911 6.57645 15.0966 6.45167 14.996C5.73746 14.4205 5.02303 13.7699 4.35817 13.0597C2.50082 11.0758 1.4 9.03366 1.4 7.08333ZM7 4.25C8.5464 4.25 9.8 5.51853 9.8 7.08333C9.8 8.64814 8.5464 9.91667 7 9.91667C5.4536 9.91667 4.2 8.64814 4.2 7.08333C4.2 5.51853 5.4536 4.25 7 4.25ZM5.6 7.08333C5.6 6.30093 6.2268 5.66667 7 5.66667C7.7732 5.66667 8.4 6.30093 8.4 7.08333C8.4 7.86574 7.7732 8.5 7 8.5C6.2268 8.5 5.6 7.86574 5.6 7.08333Z" fill="#757897"/>
</svg>
