<svg width="17" height="16" viewBox="0 0 17 16" fill="none" xmlns="http://www.w3.org/2000/svg">
<path fill-rule="evenodd" clip-rule="evenodd" d="M7.9699 0C4.03466 0 0.844513 3.22355 0.844513 7.2C0.844513 11.1764 4.03466 14.4 7.9699 14.4C9.65232 14.4 11.1986 13.8108 12.4175 12.8255L15.3273 15.7657L15.4019 15.8323C15.7125 16.0763 16.1616 16.0541 16.447 15.7657C16.7561 15.4533 16.7561 14.9468 16.447 14.6344L13.5372 11.6941C14.5122 10.4624 15.0953 8.89999 15.0953 7.2C15.0953 3.22355 11.9051 0 7.9699 0ZM11.9606 11.0858C12.9211 10.0788 13.5119 8.70908 13.5119 7.19998C13.5119 4.10718 11.0307 1.59998 7.96991 1.59998C4.90916 1.59998 2.42794 4.10718 2.42794 7.19998C2.42794 10.2928 4.90916 12.8 7.96991 12.8C9.4634 12.8 10.8189 12.203 11.8155 11.2324C11.8362 11.2053 11.8588 11.1792 11.8834 11.1544C11.908 11.1295 11.9338 11.1067 11.9606 11.0858Z" fill="#757897"/>
</svg>
