<svg width="32" height="18" viewBox="0 0 32 18" fill="none" xmlns="http://www.w3.org/2000/svg">
<path fill-rule="evenodd" clip-rule="evenodd" d="M28.8362 5.686L25.1942 0.830576C24.8009 0.309065 24.1862 0.001752 23.533 0H2.07644C0.929661 0 0 0.929661 0 2.07644V14.5351C0 14.9173 0.309909 15.2272 0.692168 15.2272H3.52995C3.91032 17.1003 5.73707 18.3104 7.61015 17.9301C8.97203 17.6536 10.0365 16.5892 10.313 15.2272H21.5257C21.9061 17.1003 23.7329 18.3104 25.6059 17.9301C26.9678 17.6536 28.0323 16.5892 28.3088 15.2272H31.1466C31.5288 15.2272 31.8388 14.9173 31.8388 14.5351V11.0744C31.8388 9.64305 31.8388 7.26345 28.8362 5.686ZM1.38427 2.0765C1.38427 1.69424 1.69418 1.38434 2.07644 1.38434H23.533C23.7507 1.38498 23.9556 1.48744 24.0867 1.66122L27.8243 6.64467C27.8889 6.73052 27.9725 6.80021 28.0686 6.84816C28.9365 7.28214 29.4861 7.7812 29.8377 8.30511H1.38427V2.0765ZM4.84505 14.5351C4.84505 15.6819 5.77471 16.6116 6.92149 16.6116C8.06826 16.6116 8.99792 15.6819 8.99792 14.5351C8.99792 13.3884 8.06826 12.4587 6.92149 12.4587C5.77471 12.4587 4.84505 13.3884 4.84505 14.5351ZM24.9173 16.6116C23.7705 16.6116 22.8408 15.6819 22.8408 14.5351C22.8408 13.3884 23.7705 12.4587 24.9173 12.4587C26.064 12.4587 26.9937 13.3884 26.9937 14.5351C26.9937 15.6819 26.064 16.6116 24.9173 16.6116ZM30.4544 13.843V11.0744C30.4661 10.6115 30.4388 10.1484 30.3727 9.69009H1.38427V13.843H3.52982C3.80637 12.481 4.87081 11.4167 6.23269 11.1401C8.10577 10.7598 9.93252 11.9699 10.3129 13.843H21.5257C21.8022 12.481 22.8667 11.4167 24.2285 11.1401C26.1016 10.7598 27.9284 11.9699 28.3087 13.843H30.4544Z" fill="#757897"/>
<path fill-rule="evenodd" clip-rule="evenodd" d="M22.8408 2.07654C23.0837 2.07654 23.3088 2.20398 23.4339 2.41221L25.5104 5.87298C25.5751 5.98057 25.6093 6.10373 25.6093 6.22929C25.6093 6.61155 25.2995 6.92152 24.9172 6.92158H18.6879C18.3056 6.92158 17.9957 6.61168 17.9957 6.22942V2.76871C17.9957 2.38645 18.3056 2.07654 18.6879 2.07654H22.8408ZM19.3801 3.46081V5.53725H23.6949L22.449 3.46081H19.3801Z" fill="#757897"/>
<path fill-rule="evenodd" clip-rule="evenodd" d="M16.6115 2.07654H2.76858C2.38632 2.07654 2.07642 2.38645 2.07642 2.76871V6.22942C2.07642 6.61168 2.38632 6.92158 2.76858 6.92158H16.6115C16.9938 6.92158 17.3037 6.61168 17.3037 6.22942V2.76871C17.3037 2.38638 16.9938 2.07654 16.6115 2.07654ZM8.30573 5.53725H3.46069V3.46081H8.30573V5.53725ZM9.69001 5.53725H15.9193V3.46081H9.69001V5.53725Z" fill="#757897"/>
</svg>
